<?xml version="1.0" encoding="UTF-8" standalone="no"?>
<!DOCTYPE svg PUBLIC "-//W3C//DTD SVG 1.1//EN"
 "http://www.w3.org/Graphics/SVG/1.1/DTD/svg11.dtd">
<!-- Generated by graphviz version 2.40.1 (20161225.0304)
 -->
<!-- Title: G Pages: 1 -->
<svg width="321pt" height="386pt"
 viewBox="0.00 0.00 320.50 386.00" xmlns="http://www.w3.org/2000/svg" xmlns:xlink="http://www.w3.org/1999/xlink">
<g id="graph0" class="graph" transform="scale(1 1) rotate(0) translate(4 382)">
<title>G</title>
<polygon fill="#ffffff" stroke="transparent" points="-4,4 -4,-382 316.5,-382 316.5,4 -4,4"/>
<g id="clust1" class="cluster">
<title>cluster_Global</title>
<path fill="none" stroke="#c0c0c0" d="M20,-44C20,-44 292.5,-44 292.5,-44 298.5,-44 304.5,-50 304.5,-56 304.5,-56 304.5,-358 304.5,-358 304.5,-364 298.5,-370 292.5,-370 292.5,-370 20,-370 20,-370 14,-370 8,-364 8,-358 8,-358 8,-56 8,-56 8,-50 14,-44 20,-44"/>
<text text-anchor="middle" x="156.25" y="-357.2" font-family="Times,serif" font-size="11.00" fill="#c0c0c0">Global</text>
</g>
<g id="clust2" class="cluster">
<title>cluster_\Fire</title>
<path fill="none" stroke="#c0c0c0" d="M28,-52C28,-52 284.5,-52 284.5,-52 290.5,-52 296.5,-58 296.5,-64 296.5,-64 296.5,-330 296.5,-330 296.5,-336 290.5,-342 284.5,-342 284.5,-342 28,-342 28,-342 22,-342 16,-336 16,-330 16,-330 16,-64 16,-64 16,-58 22,-52 28,-52"/>
<text text-anchor="middle" x="156.25" y="-329.2" font-family="Times,serif" font-size="11.00" fill="#c0c0c0">Fire</text>
</g>
<g id="clust3" class="cluster">
<title>cluster_\Fire\Bug</title>
<path fill="none" stroke="#c0c0c0" d="M36,-160C36,-160 276.5,-160 276.5,-160 282.5,-160 288.5,-166 288.5,-172 288.5,-172 288.5,-302 288.5,-302 288.5,-308 282.5,-314 276.5,-314 276.5,-314 36,-314 36,-314 30,-314 24,-308 24,-302 24,-302 24,-172 24,-172 24,-166 30,-160 36,-160"/>
<text text-anchor="middle" x="156.25" y="-301.2" font-family="Times,serif" font-size="11.00" fill="#c0c0c0">Bug</text>
</g>
<g id="clust4" class="cluster">
<title>cluster_\Fire\Bug\Panel</title>
<path fill="none" stroke="#c0c0c0" d="M205.5,-214C205.5,-214 268.5,-214 268.5,-214 274.5,-214 280.5,-220 280.5,-226 280.5,-226 280.5,-274 280.5,-274 280.5,-280 274.5,-286 268.5,-286 268.5,-286 205.5,-286 205.5,-286 199.5,-286 193.5,-280 193.5,-274 193.5,-274 193.5,-226 193.5,-226 193.5,-220 199.5,-214 205.5,-214"/>
<text text-anchor="middle" x="237" y="-273.2" font-family="Times,serif" font-size="11.00" fill="#c0c0c0">Panel</text>
</g>
<!-- \\Fire\\Bug\\Panel\\Debugger -->
<g id="node1" class="node">
<title>\\Fire\\Bug\\Panel\\Debugger</title>
<polygon fill="none" stroke="#000000" points="272.5,-258 201.5,-258 201.5,-222 272.5,-222 272.5,-258"/>
<text text-anchor="middle" x="237" y="-237.2" font-family="Courier,monospace" font-size="11.00" fill="#000000">Debugger</text>
</g>
<!-- \\Fire\\Bug\\Panel -->
<g id="node3" class="node">
<title>\\Fire\\Bug\\Panel</title>
<polygon fill="none" stroke="#000000" points="116,-231 32,-231 32,-195 116,-195 116,-231"/>
<text text-anchor="start" x="40" y="-216.2" font-family="Courier,monospace" font-size="11.00" fill="#000000">«abstract»</text>
<text text-anchor="start" x="57" y="-204.2" font-family="Courier,monospace" font-size="11.00" fill="#000000">Panel</text>
</g>
<!-- \\Fire\\Bug\\Panel\\Debugger&#45;&gt;\\Fire\\Bug\\Panel -->
<g id="edge2" class="edge">
<title>\\Fire\\Bug\\Panel\\Debugger&#45;&gt;\\Fire\\Bug\\Panel</title>
<path fill="none" stroke="#000000" d="M201.229,-234.0747C179.1548,-230.4183 150.4634,-225.6657 125.9153,-221.5995"/>
<polygon fill="none" stroke="#000000" points="126.4704,-218.1438 116.0328,-219.9625 125.3264,-225.0497 126.4704,-218.1438"/>
</g>
<!-- \\Fire\\Bug\\Debugger -->
<g id="node2" class="node">
<title>\\Fire\\Bug\\Debugger</title>
<polygon fill="none" stroke="#000000" points="272.5,-204 201.5,-204 201.5,-168 272.5,-168 272.5,-204"/>
<text text-anchor="middle" x="237" y="-183.2" font-family="Courier,monospace" font-size="11.00" fill="#000000">Debugger</text>
</g>
<!-- \\Fire\\Bug -->
<g id="node4" class="node">
<title>\\Fire\\Bug</title>
<polygon fill="none" stroke="#000000" points="264,-150 210,-150 210,-114 264,-114 264,-150"/>
<text text-anchor="middle" x="237" y="-129.2" font-family="Courier,monospace" font-size="11.00" fill="#000000">Bug</text>
</g>
<!-- \\Fire\\Bug&#45;&gt;\\Fire\\Bug\\Panel -->
<g id="edge1" class="edge">
<title>\\Fire\\Bug&#45;&gt;\\Fire\\Bug\\Panel</title>
<path fill="none" stroke="#000000" d="M209.7664,-145.2898C202.6746,-148.7639 195.0465,-152.5128 188,-156 165.1962,-167.2853 139.8788,-179.9322 118.9062,-190.4408"/>
<polygon fill="none" stroke="#000000" points="117.2742,-187.3437 109.9032,-194.9542 120.4113,-193.6014 117.2742,-187.3437"/>
</g>
<!-- \\Fire\\BugException -->
<g id="node5" class="node">
<title>\\Fire\\BugException</title>
<polygon fill="none" stroke="#000000" points="286,-96 188,-96 188,-60 286,-60 286,-96"/>
<text text-anchor="middle" x="237" y="-75.2" font-family="Courier,monospace" font-size="11.00" fill="#000000">BugException</text>
</g>
<!-- \\Exception -->
<g id="node6" class="node">
<title>\\Exception</title>
<ellipse fill="none" stroke="#000000" cx="74" cy="-18" rx="40.8928" ry="18"/>
<text text-anchor="middle" x="74" y="-14.3" font-family="Times,serif" font-size="14.00" fill="#c0c0c0">xception</text>
</g>
<!-- \\Fire\\BugException&#45;&gt;\\Exception -->
<g id="edge3" class="edge">
<title>\\Fire\\BugException&#45;&gt;\\Exception</title>
<path fill="none" stroke="#000000" d="M188.0946,-59.998C164.8956,-51.4585 137.478,-41.3662 115.3348,-33.2153"/>
<polygon fill="none" stroke="#000000" points="116.4751,-29.9055 105.8817,-29.7356 114.057,-36.4746 116.4751,-29.9055"/>
</g>
</g>
</svg>
